<svg width="32" height="32" viewBox="0 0 32 32" fill="none" xmlns="http://www.w3.org/2000/svg">
<path d="M2.02349 2.30071L2.37324 1.94331L2.03338 1.60344L1.68402 1.9334L2.02349 2.30071ZM15.4441 15.7214L15.0944 16.0788L15.4441 16.4285L15.7938 16.0788L15.4441 15.7214ZM1.30044 2.98362L0.960965 2.61631L0.582985 2.97331L0.950691 3.34102L1.30044 2.98362ZM14.7412 16.4244L15.0909 16.7818L15.4483 16.4244L15.0909 16.067L14.7412 16.4244ZM1.29517 29.8704L0.945463 29.513L0.577122 29.8814L0.956232 30.2383L1.29517 29.8704ZM2.0272 30.5596L1.68827 30.9275L2.03755 31.2563L2.37691 30.9169L2.0272 30.5596ZM15.4518 17.135L15.8015 16.7776L15.4518 16.4279L15.102 16.7777L15.4518 17.135ZM29.5629 31.2463L29.2132 31.6037L29.553 31.9435L29.9024 31.6136L29.5629 31.2463ZM30.286 30.5634L30.6255 30.9307L31.0034 30.5737L30.6357 30.206L30.286 30.5634ZM16.1547 16.432L15.805 16.0747L15.4476 16.4321L15.805 16.7894L16.1547 16.432ZM30.2824 2.30437L30.6321 2.66173L31.0004 2.29339L30.6213 1.93648L30.2824 2.30437ZM29.5504 1.6152L29.8893 1.24731L29.54 0.918483L29.2007 1.25784L29.5504 1.6152ZM1.67374 2.65811L15.0944 16.0788L15.7939 15.364L2.37324 1.94331L1.67374 2.65811ZM1.63991 3.35092L2.36297 2.66801L1.68402 1.9334L0.960965 2.61631L1.63991 3.35092ZM15.0909 16.067L1.65019 2.62621L0.950691 3.34102L14.3914 16.7818L15.0909 16.067ZM1.64487 30.2278L15.0909 16.7818L14.3915 16.067L0.945463 29.513L1.64487 30.2278ZM2.36614 30.1917L1.6341 29.5025L0.956232 30.2383L1.68827 30.9275L2.36614 30.1917ZM15.102 16.7777L1.6775 30.2022L2.37691 30.9169L15.8015 17.4924L15.102 16.7777ZM29.9127 30.8889L15.8015 16.7776L15.102 17.4924L29.2132 31.6037L29.9127 30.8889ZM29.9465 30.1961L29.2234 30.879L29.9024 31.6136L30.6255 30.9307L29.9465 30.1961ZM15.805 16.7894L29.9362 30.9208L30.6357 30.206L16.5045 16.0746L15.805 16.7894ZM29.9327 1.94701L15.805 16.0747L16.5044 16.7894L30.6321 2.66173L29.9327 1.94701ZM29.2114 1.98309L29.9435 2.67226L30.6213 1.93648L29.8893 1.24731L29.2114 1.98309ZM15.7938 16.0788L29.9001 1.97256L29.2007 1.25784L15.0944 15.3641L15.7938 16.0788Z" fill="#D3BE73"/>
</svg>
