<svg width="65" height="60" viewBox="0 0 65 60" fill="none" xmlns="http://www.w3.org/2000/svg">
<path d="M5.94309 59.0166C6.68656 59.76 7.89221 59.7602 8.63581 59.0166L38.8614 28.791L40.2075 30.137C40.2076 30.1371 40.2077 30.1373 40.2077 30.1374C40.963 30.8924 42.1697 30.8682 42.9004 30.1374C43.643 29.3951 44.8507 29.3949 45.5933 30.1374C46.3357 30.8797 46.3357 32.0878 45.5933 32.8301C44.8465 33.577 44.8551 34.7851 45.5933 35.5228L50.9789 40.9083C51.3507 41.2801 51.838 41.4659 52.3252 41.4659C52.8124 41.4659 53.2998 41.28 53.6715 40.9082L64.4425 30.1371C65.1856 29.3942 65.1861 28.1879 64.4425 27.4444L59.0569 22.059C58.3063 21.3084 57.0989 21.324 56.3642 22.059C55.6216 22.8013 54.4138 22.8013 53.6715 22.059C52.9272 21.3147 52.9272 20.1105 53.6715 19.3662C54.4121 18.6254 54.4153 17.4171 53.6715 16.6735L40.2077 3.20976C36.4958 -0.502148 30.456 -0.502275 26.7441 3.20976L21.3585 8.59521C20.779 9.17468 20.6353 10.0601 21.0018 10.7931C21.3683 11.5262 22.163 11.9424 22.974 11.8265L30.5137 10.7495C31.1035 10.6652 31.7077 10.8665 32.1294 11.2881C32.8736 12.0323 32.8736 13.2366 32.1294 13.9808L29.4368 16.6735C28.6932 17.4171 28.6932 18.6226 29.4368 19.3662L30.7831 20.7125L0.55751 50.9383C-0.185583 51.6812 -0.18609 52.8875 0.55751 53.631L5.94309 59.0166ZM57.7106 26.0981L60.4035 28.7908L52.3252 36.8691L49.6323 34.1764L57.7106 26.0981ZM50.9789 24.7518C51.4508 25.2238 51.986 25.5947 52.5568 25.8666L49.4033 29.0201C49.127 28.4429 48.752 27.9104 48.286 27.4445C47.8202 26.9787 47.2877 26.6037 46.7105 26.3274L49.8616 23.1763C50.1379 23.7535 50.5129 24.2858 50.9789 24.7518ZM29.9754 6.97968L28.0904 7.24891L29.4368 5.90248C31.6641 3.67524 35.2881 3.67537 37.5151 5.90248L49.6326 18.0198L41.5541 26.0981C40.3754 24.9194 34.5141 19.058 33.4758 18.0198L34.8221 16.6735C37.0545 14.4413 37.0548 10.8278 34.8221 8.59521C33.5578 7.33078 31.7457 6.72669 29.9754 6.97968ZM33.4758 23.4054L36.1686 26.0982L15.3677 46.8991L12.6748 44.2064L33.4758 23.4054ZM9.98211 46.8991L12.675 49.592L7.28939 54.9774L4.59653 52.2847L9.98211 46.8991Z" fill="#D3BE73"/>
</svg>
