<svg width="21" height="22" viewBox="0 0 21 22" fill="none" xmlns="http://www.w3.org/2000/svg">
<path fill-rule="evenodd" clip-rule="evenodd" d="M10.5 0.5C7.64885 0.5 7.29104 0.512115 6.17077 0.563C5.05292 0.613885 4.28965 0.791577 3.62169 1.05085C2.92119 1.31468 2.28667 1.72813 1.76238 2.26238C1.22803 2.78691 0.814572 3.42171 0.550846 4.1225C0.291577 4.78965 0.114692 5.55292 0.0630001 6.67077C0.0121154 7.79104 0 8.14885 0 11C0 13.8512 0.0121154 14.209 0.0630001 15.3292C0.113885 16.4471 0.291577 17.2103 0.550846 17.8775C0.819808 18.5681 1.17842 19.1537 1.76238 19.7376C2.28667 20.2719 2.92119 20.6853 3.62169 20.9492C4.28965 21.2076 5.05292 21.3853 6.17077 21.437C7.29104 21.4879 7.64885 21.5 10.5 21.5C13.3512 21.5 13.709 21.4879 14.8292 21.437C15.9471 21.3861 16.7103 21.2084 17.3775 20.9492C18.0783 20.6855 18.7131 20.272 19.2376 19.7376C19.772 19.2131 20.1854 18.5783 20.4492 17.8775C20.7076 17.2103 20.8853 16.4471 20.937 15.3292C20.9879 14.209 21 13.8512 21 11C21 8.14885 20.9879 7.79104 20.937 6.67077C20.8861 5.55292 20.7084 4.78965 20.4483 4.1225C20.1849 3.42179 19.7717 2.78699 19.2376 2.26238C18.7131 1.72801 18.0783 1.31455 17.3775 1.05085C16.7103 0.792385 15.9471 0.614692 14.8292 0.563C13.709 0.512115 13.3512 0.5 10.5 0.5ZM10.5 2.39162C13.3035 2.39162 13.6355 2.40292 14.7428 2.453C15.7662 2.49985 16.3227 2.67108 16.6926 2.81485C17.1828 3.00546 17.5326 3.23242 17.9001 3.59992C18.2676 3.96742 18.4945 4.31715 18.6852 4.80742C18.8289 5.17735 19.0002 5.73304 19.047 6.75719C19.0971 7.86373 19.1084 8.1965 19.1084 11C19.1084 13.8035 19.0971 14.1355 19.047 15.2428C19.0002 16.267 18.8289 16.8227 18.6852 17.1926C18.517 17.6487 18.2487 18.0613 17.9001 18.4001C17.5613 18.7487 17.1487 19.017 16.6926 19.1852C16.3227 19.3289 15.7662 19.5002 14.7428 19.547C13.6363 19.5971 13.3035 19.6084 10.5 19.6084C7.6965 19.6084 7.36373 19.5971 6.25719 19.547C5.23304 19.5002 4.67735 19.3289 4.30742 19.1852C3.85131 19.017 3.4387 18.7487 3.09992 18.4001C2.75135 18.0612 2.48309 17.6486 2.31485 17.1926C2.17108 16.8227 1.99985 16.267 1.953 15.2428C1.90292 14.1363 1.89162 13.8035 1.89162 11C1.89162 8.1965 1.90292 7.86454 1.953 6.75719C1.99985 5.73304 2.17108 5.17735 2.31485 4.80742C2.50546 4.31715 2.73242 3.96742 3.09992 3.59992C3.43872 3.2513 3.85132 2.98304 4.30742 2.81485C4.67735 2.67108 5.23304 2.49985 6.25719 2.453C7.36373 2.40292 7.6965 2.39162 10.5 2.39162Z" fill="#D3BE73"/>
<path fill-rule="evenodd" clip-rule="evenodd" d="M10.5 5.3463C9.00051 5.3463 7.56244 5.94198 6.50213 7.00228C5.44183 8.06258 4.84616 9.50066 4.84616 11.0002C4.84616 12.4996 5.44183 13.9377 6.50213 14.998C7.56244 16.0583 9.00051 16.654 10.5 16.654C11.9995 16.654 13.4376 16.0583 14.4979 14.998C15.5582 13.9377 16.1539 12.4996 16.1539 11.0002C16.1539 9.50066 15.5582 8.06258 14.4979 7.00228C13.4376 5.94198 11.9995 5.3463 10.5 5.3463ZM10.5 14.6348C9.53605 14.6348 8.61157 14.2518 7.92995 13.5702C7.24832 12.8886 6.86539 11.9641 6.86539 11.0002C6.86539 10.0362 7.24832 9.11171 7.92995 8.43009C8.61157 7.74847 9.53605 7.36553 10.5 7.36553C11.464 7.36553 12.3884 7.74847 13.0701 8.43009C13.7517 9.11171 14.1346 10.0362 14.1346 11.0002C14.1346 11.9641 13.7517 12.8886 13.0701 13.5702C12.3884 14.2518 11.464 14.6348 10.5 14.6348ZM17.5269 5.42707C17.5269 5.59678 17.4935 5.76483 17.4286 5.92162C17.3636 6.07841 17.2684 6.22087 17.1484 6.34087C17.0284 6.46087 16.886 6.55607 16.7292 6.62101C16.5724 6.68595 16.4043 6.71938 16.2346 6.71938C16.0649 6.71938 15.8969 6.68595 15.7401 6.62101C15.5833 6.55607 15.4408 6.46087 15.3208 6.34087C15.2008 6.22087 15.1056 6.07841 15.0407 5.92162C14.9757 5.76483 14.9423 5.59678 14.9423 5.42707C14.9423 5.08433 15.0785 4.75563 15.3208 4.51327C15.5632 4.27092 15.8919 4.13477 16.2346 4.13477C16.5774 4.13477 16.9061 4.27092 17.1484 4.51327C17.3908 4.75563 17.5269 5.08433 17.5269 5.42707Z" fill="#D3BE73"/>
</svg>
