<svg width="21" height="14" viewBox="0 0 21 14" fill="none" xmlns="http://www.w3.org/2000/svg">
<path fill-rule="evenodd" clip-rule="evenodd" d="M10.3061 12.9464H11.5794C11.5794 12.9464 11.9613 12.8828 12.1523 12.6918C12.3433 12.5008 12.3433 12.1188 12.3433 12.1188C12.3433 12.1188 12.3433 10.4636 13.1073 10.209C13.8712 9.95434 14.8898 11.8642 15.9084 12.5645C16.6723 13.1374 17.2453 13.0101 17.2453 13.0101L20.0464 12.9464C20.0464 12.9464 21.5106 12.8828 20.8103 11.6732C20.7467 11.6095 20.4284 10.8456 18.7095 9.25406C16.927 7.59885 17.1816 7.91716 19.2824 5.05238C20.5557 3.33351 21.065 2.31492 20.9377 1.80563C20.8103 1.36 19.8554 1.48732 19.8554 1.48732H16.6723C16.6723 1.48732 16.4177 1.42366 16.2903 1.55098C16.0994 1.67831 16.0357 1.86929 16.0357 1.86929C16.0357 1.86929 15.5264 3.20619 14.8898 4.3521C13.4892 6.70759 12.9163 6.83491 12.7253 6.70759C12.216 6.38928 12.3433 5.30703 12.3433 4.60675C12.3433 2.31492 12.7253 1.36 11.643 1.10535C11.3247 1.04169 11.0701 0.978027 10.1788 0.978027C9.0329 0.978027 8.07797 0.978027 7.56868 1.23267C7.18671 1.42366 6.93206 1.80563 7.12305 1.80563C7.31403 1.80563 7.82333 1.93295 8.07797 2.25126C8.33262 2.82422 8.33262 3.77915 8.33262 3.77915C8.33262 3.77915 8.5236 6.5166 7.88699 6.83491C7.44135 7.08956 6.8684 6.58026 5.59516 4.41576C4.95855 3.33351 4.44925 2.06028 4.44925 2.06028C4.44925 2.06028 4.38559 1.80563 4.1946 1.67831C4.00362 1.55098 3.68531 1.48732 3.68531 1.48732H0.693206C0.693206 1.48732 0.247574 1.48732 0.0565882 1.67831C-0.0707353 1.86929 0.0565882 2.1876 0.0565882 2.1876C0.0565882 2.1876 2.41207 7.66251 5.08587 10.4636C7.56868 13.1374 10.3061 12.9464 10.3061 12.9464Z" fill="#D3BE73"/>
</svg>
